<svg width="44" height="52" viewBox="0 0 44 52" fill="none" xmlns="http://www.w3.org/2000/svg">
<path fill-rule="evenodd" clip-rule="evenodd" d="M8.82104 12.3388C8.43624 12.338 8.06529 12.3816 7.71281 12.4644C7.2296 11.3994 6.59134 10.4439 5.8654 9.71794C4.63327 8.48581 2.69003 8 0 8V12.3333C1.6433 12.3333 2.58895 12.5697 2.80127 12.7821C3.6202 13.601 4.33333 15.265 4.33333 16.6667L4.35511 16.9731L6.47816 31.8344C2.92577 32.0187 0.173762 34.7775 0.00266192 38.226L0 40.5C0.209779 44.0619 2.95263 46.8018 6.37702 46.9965L6.86889 46.9973C7.76043 49.5233 10.1688 51.3333 13 51.3333C15.8301 51.3333 18.2378 49.5246 19.1301 47H24.2032C25.0955 49.5246 27.5032 51.3333 30.3333 51.3333C33.9232 51.3333 36.8333 48.4232 36.8333 44.8333C36.8333 41.2435 33.9232 38.3333 30.3333 38.3333C27.5032 38.3333 25.0955 40.1421 24.2032 42.6667H19.1301C18.2378 40.1421 15.8301 38.3333 13 38.3333C10.1699 38.3333 7.76218 40.1421 6.86986 42.6667H6.5C5.39502 42.6003 4.40383 41.6102 4.32945 40.3703L4.33333 38.3333C4.39176 37.2095 5.37617 36.2251 6.60737 36.164L10.8847 36.1651L10.9157 36.1667H32.7532L33.073 36.0652C34.7158 35.5439 36.0309 34.3069 36.6536 32.7055L36.8818 32.2537L36.8916 32.2342L36.8938 32.2299C37.1888 31.6458 37.1944 31.6346 37.6234 30.7844C38.3907 29.2635 39.1579 27.74 39.9056 26.2516C41.737 22.6057 42.8887 20.2886 43.1438 19.7196C44.4536 16.7976 41.8002 14.5487 39.0882 14.5008L8.82104 12.3388ZM32.0004 31.8332H11.0779C10.9388 31.7946 10.8327 31.6767 10.812 31.5299L8.68889 16.6682L38.769 18.8222C38.2426 19.8956 37.2859 21.8127 36.0333 24.3064L36.0019 24.3689C35.2869 25.7923 34.5207 27.3137 33.7545 28.8326L33.7535 28.8346C33.3241 29.6855 33.3201 29.6935 33.0219 30.284L33.0163 30.2951L33.0138 30.3L32.733 30.8557L32.6273 31.1014C32.5142 31.4167 32.2895 31.6758 32.0004 31.8332ZM30.3333 47C31.5299 47 32.5 46.0299 32.5 44.8333C32.5 43.6367 31.5299 42.6667 30.3333 42.6667C29.1367 42.6667 28.1667 43.6367 28.1667 44.8333C28.1667 46.0299 29.1367 47 30.3333 47ZM15.1667 44.8333C15.1667 46.0299 14.1966 47 13 47C11.8034 47 10.8333 46.0299 10.8333 44.8333C10.8333 43.6367 11.8034 42.6667 13 42.6667C14.1966 42.6667 15.1667 43.6367 15.1667 44.8333Z" fill="#256EFF"/>
<circle cx="29" cy="11" r="10.5" fill="#5F45BF" stroke="#5F45BF"/>
<path d="M26.5522 10.7695L27.0151 6.46875H31.5971V7.69922H28.1986L27.9643 9.73828C28.3588 9.51172 28.8041 9.39844 29.3002 9.39844C30.1127 9.39844 30.7436 9.6582 31.1928 10.1777C31.6459 10.6973 31.8725 11.3965 31.8725 12.2754C31.8725 13.1426 31.6225 13.834 31.1225 14.3496C30.6225 14.8613 29.9369 15.1172 29.0658 15.1172C28.2846 15.1172 27.6361 14.8965 27.1205 14.4551C26.6088 14.0098 26.3315 13.4238 26.2885 12.6973H27.6654C27.7201 13.1113 27.8686 13.4297 28.1108 13.6523C28.3529 13.8711 28.6693 13.9805 29.06 13.9805C29.4975 13.9805 29.8373 13.8242 30.0795 13.5117C30.3256 13.1992 30.4486 12.7734 30.4486 12.2344C30.4486 11.7148 30.3139 11.3047 30.0443 11.0039C29.7748 10.6992 29.4037 10.5469 28.9311 10.5469C28.6733 10.5469 28.4545 10.582 28.2748 10.6523C28.0951 10.7188 27.8998 10.8516 27.6889 11.0508L26.5522 10.7695Z" fill="white"/>
</svg>
