<svg width="24" height="24" viewBox="0 0 24 24" fill="none" xmlns="http://www.w3.org/2000/svg">
<path d="M10.0687 10.0689C10.8497 9.28781 10.8497 8.02148 10.0687 7.24043C9.28762 6.45938 8.02129 6.45938 7.24024 7.24043C6.4592 8.02148 6.4592 9.28781 7.24024 10.0689C8.02129 10.8499 9.28762 10.8499 10.0687 10.0689Z" fill="#0F0E0E"/>
<path fill-rule="evenodd" clip-rule="evenodd" d="M3.64805 13.5477C3.2352 13.1349 3.02337 12.5623 3.06815 11.9801L3.57323 5.41413C3.64889 4.43057 4.43039 3.64907 5.41395 3.57341L11.9799 3.06834C12.5621 3.02356 13.1347 3.23539 13.5475 3.64823L21.3824 11.4831C22.1634 12.2641 22.1634 13.5304 21.3824 14.3115L14.3113 21.3826C13.5303 22.1636 12.2639 22.1636 11.4829 21.3826L3.64805 13.5477ZM12.1333 5.06245L19.9682 12.8973L12.8971 19.9683L5.06226 12.1335L5.56734 5.56752L12.1333 5.06245Z" fill="#0F0E0E"/>
</svg>
